<?xml version="1.0" encoding="UTF-8"?>
<svg id="_Слой_1" data-name="Слой 1" xmlns="http://www.w3.org/2000/svg" viewBox="0 0 105.51 96.32">
  <defs>
    <style>
      .cls-1 {
        fill: #fff;
        stroke: #008d36;
        stroke-miterlimit: 10;
      }

      .cls-2 {
        fill: #008d36;
        stroke-width: 0px;
      }
    </style>
  </defs>
  <rect class="cls-1" x=".5" y=".5" width="104.51" height="95.32"/>
  <path class="cls-2" d="m14.02,26.84c5.7,16.03,11.4,32.06,17.1,48.09,1.19,3.36,3.43,6.01,6.98,6.98,3.19.88,7.52.1,9.73-2.57,12.17-14.69,24.33-29.38,36.5-44.08,3.49-4.22,6.98-8.43,10.47-12.65,1.74-2.1,2.93-4.25,2.93-7.07,0-2.45-1.09-5.38-2.93-7.07s-4.41-3.05-7.07-2.93c-2.51.11-5.4.92-7.07,2.93-12.17,14.69-24.33,29.38-36.5,44.08-3.49,4.22-6.98,8.43-10.47,12.65l16.71,4.41c-5.7-16.03-11.4-32.06-17.1-48.09-.88-2.48-2.26-4.61-4.6-5.98-2.14-1.25-5.3-1.79-7.71-1.01s-4.75,2.28-5.98,4.6-1.9,5.18-1.01,7.71h0Z"/>
</svg>