<?xml version="1.0" encoding="utf-8"?>
<!-- Generator: Adobe Illustrator 27.9.0, SVG Export Plug-In . SVG Version: 6.00 Build 0)  -->
<svg version="1.1" id="_Слой_1" xmlns="http://www.w3.org/2000/svg" xmlns:xlink="http://www.w3.org/1999/xlink" x="0px"
	 y="0px" viewBox="0 0 105.5 96.3" style="enable-background:new 0 0 105.5 96.3;" xml:space="preserve">
<style type="text/css">
	.st0{fill:#EC6720;}
</style>
<path class="st0" d="M14.1,31.1c5.7,16,11.4,32.1,17.1,48.1c1.2,3.4,3.4,6,7,7c3.2,0.9,7.5,0.1,9.7-2.6
	c12.2-14.7,24.3-29.4,36.5-44.1c3.5-4.2,7-8.4,10.5-12.7c1.7-2.1,2.9-4.2,2.9-7.1c0-2.4-1.1-5.4-2.9-7.1c-1.8-1.7-4.4-3-7.1-2.9
	c-2.5,0.1-5.4,0.9-7.1,2.9C68.6,27.4,56.4,42.1,44.3,56.8c-2,2.4-4,4.8-5.9,7.2c-2.1,2.6-0.9,6.4,2.3,7.3l1.5,0.4
	c3.5,0.9,6.7-2.5,5.4-5.9c-4.7-13.3-9.5-26.7-14.2-40c-0.9-2.5-2.3-4.6-4.6-6c-2.1-1.2-5.3-1.8-7.7-1s-4.8,2.3-6,4.6
	S13.2,28.6,14.1,31.1L14.1,31.1z"/>
</svg>
